{
  "accessors": [
    {
      "bufferView": 2,
      "componentType": 5126,
      "count": 1440,
      "max": [
        1.9297000169754028,
        1.77961003780365,
        43.40520095825195
      ],
      "min": [
        -1.9159599542617798,
        -1.6465200185775757,
        40.19540023803711
      ],
      "type": "VEC3"
    },
    {
      "bufferView": 2,
      "byteOffset": 17280,
      "componentType": 5126,
      "count": 1440,
      "max": [
        0.9941791296005249,
        0.9996135234832764,
        0.9998374581336975
      ],
      "min": [
        -0.9996136426925659,
        -0.9996136426925659,
        -0.9435255527496338
      ],
      "type": "VEC3"
    },
    {
      "bufferView": 3,
      "componentType": 5126,
      "count": 1440,
      "max": [
        0.9993536472320557,
        0.998641848564148,
        0.7469155192375183,
        1.0
      ],
      "min": [
        -0.9993536472320557,
        -0.9993535876274109,
        -0.5170207619667053,
        1.0
      ],
      "type": "VEC4"
    },
    {
      "bufferView": 1,
      "componentType": 5126,
      "count": 1440,
      "max": [
        1.0,
        0.7432180047035217
      ],
      "min": [
        0.0,
        0.0
      ],
      "type": "VEC2"
    },
    {
      "bufferView": 0,
      "componentType": 5125,
      "count": 1440,
      "type": "SCALAR"
    },
    {
      "bufferView": 2,
      "byteOffset": 34560,
      "componentType": 5126,
      "count": 372,
      "max": [
        6.786890029907227,
        6.786890029907227,
        47.83330154418945
      ],
      "min": [
        -6.786890029907227,
        -6.786880016326904,
        32.22809982299805
      ],
      "type": "VEC3"
    },
    {
      "bufferView": 2,
      "byteOffset": 39024,
      "componentType": 5126,
      "count": 372,
      "max": [
        1.0,
        1.0,
        1.0
      ],
      "min": [
        -1.0,
        -1.0,
        -0.9990589022636414
      ],
      "type": "VEC3"
    },
    {
      "bufferView": 3,
      "byteOffset": 23040,
      "componentType": 5126,
      "count": 372,
      "max": [
        0.999874472618103,
        0.9999107718467712,
        0.7590251564979553,
        1.0
      ],
      "min": [
        -0.9999106526374817,
        -0.9987619519233704,
        -0.7590898275375366,
        1.0
      ],
      "type": "VEC4"
    },
    {
      "bufferView": 1,
      "byteOffset": 11520,
      "componentType": 5126,
      "count": 372,
      "max": [
        0.9998480081558228,
        1.0
      ],
      "min": [
        0.0,
        0.0
      ],
      "type": "VEC2"
    },
    {
      "bufferView": 0,
      "byteOffset": 5760,
      "componentType": 5125,
      "count": 810,
      "type": "SCALAR"
    },
    {
      "bufferView": 2,
      "byteOffset": 43488,
      "componentType": 5126,
      "count": 102,
      "max": [
        2.043100118637085,
        2.043100118637085,
        5.542970180511475
      ],
      "min": [
        -2.043100118637085,
        -2.043100118637085,
        -15.415499687194824
      ],
      "type": "VEC3"
    },
    {
      "bufferView": 2,
      "byteOffset": 44712,
      "componentType": 5126,
      "count": 102,
      "max": [
        0.9378429055213928,
        0.9378429055213928,
        0.7907792925834656
      ],
      "min": [
        -0.9378429055213928,
        -0.9378429055213928,
        -0.6739242672920227
      ],
      "type": "VEC3"
    },
    {
      "bufferView": 3,
      "byteOffset": 28992,
      "componentType": 5126,
      "count": 102,
      "max": [
        0.9997353553771973,
        0.9997351169586182,
        0.928631067276001,
        1.0
      ],
      "min": [
        -0.9997353553771973,
        -0.999735414981842,
        -0.8975463509559631,
        1.0
      ],
      "type": "VEC4"
    },
    {
      "bufferView": 1,
      "byteOffset": 14496,
      "componentType": 5126,
      "count": 102,
      "max": [
        0.9018110036849976,
        0.9998679757118225
      ],
      "min": [
        0.0001322169991908595,
        0.0001322169991908595
      ],
      "type": "VEC2"
    },
    {
      "bufferView": 0,
      "byteOffset": 9000,
      "componentType": 5125,
      "count": 288,
      "type": "SCALAR"
    },
    {
      "bufferView": 2,
      "byteOffset": 45936,
      "componentType": 5126,
      "count": 110,
      "max": [
        1.8573600053787231,
        1.8573700189590454,
        32.23609924316406
      ],
      "min": [
        -1.8573600053787231,
        -1.8573600053787231,
        -18.40959930419922
      ],
      "type": "VEC3"
    },
    {
      "bufferView": 2,
      "byteOffset": 47256,
      "componentType": 5126,
      "count": 110,
      "max": [
        1.0,
        1.0,
        1.6292099758175027e-07
      ],
      "min": [
        -1.0,
        -1.0,
        -0.9088082909584045
      ],
      "type": "VEC3"
    },
    {
      "bufferView": 3,
      "byteOffset": 30624,
      "componentType": 5126,
      "count": 110,
      "max": [
        1.0,
        1.0,
        0.9178600311279297,
        1.0
      ],
      "min": [
        -0.9815968871116638,
        -1.0,
        -0.91786128282547,
        1.0
      ],
      "type": "VEC4"
    },
    {
      "bufferView": 1,
      "byteOffset": 15312,
      "componentType": 5126,
      "count": 110,
      "max": [
        0.5225419998168945,
        1.0
      ],
      "min": [
        0.0,
        0.0
      ],
      "type": "VEC2"
    },
    {
      "bufferView": 0,
      "byteOffset": 10152,
      "componentType": 5125,
      "count": 330,
      "type": "SCALAR"
    }
  ],
  "asset": {
    "extras": {
      "author": "wolfgar74 (https://sketchfab.com/wolfgar74)",
      "license": "CC-BY-4.0 (http://creativecommons.org/licenses/by/4.0/)",
      "source": "https://sketchfab.com/3d-models/medieval-torch-free-bb86fad26bcd429c93a02a79417674eb",
      "title": "Medieval Torch (Free)"
    },
    "generator": "Sketchfab-12.68.0",
    "version": "2.0"
  },
  "bufferViews": [
    {
      "buffer": 0,
      "byteLength": 11472,
      "name": "floatBufferViews",
      "target": 34963
    },
    {
      "buffer": 0,
      "byteLength": 16192,
      "byteOffset": 11472,
      "byteStride": 8,
      "name": "floatBufferViews",
      "target": 34962
    },
    {
      "buffer": 0,
      "byteLength": 48576,
      "byteOffset": 27664,
      "byteStride": 12,
      "name": "floatBufferViews",
      "target": 34962
    },
    {
      "buffer": 0,
      "byteLength": 32384,
      "byteOffset": 76240,
      "byteStride": 16,
      "name": "floatBufferViews",
      "target": 34962
    }
  ],
  "buffers": [
    {
      "byteLength": 108624,
      "uri": "scene.bin"
    }
  ],
  "images": [
    {
      "uri": "textures/Coal_baseColor.png"
    },
    {
      "uri": "textures/Coal_metallicRoughness.png"
    },
    {
      "uri": "textures/Coal_normal.png"
    },
    {
      "uri": "textures/FancyTorchIron_baseColor.png"
    },
    {
      "uri": "textures/FancyTorchIron_metallicRoughness.png"
    },
    {
      "uri": "textures/FancyTorchIron_normal.png"
    },
    {
      "uri": "textures/FancyTorchLeather_baseColor.png"
    },
    {
      "uri": "textures/FancyTorchLeather_metallicRoughness.png"
    },
    {
      "uri": "textures/FancyTorchLeather_normal.png"
    },
    {
      "uri": "textures/FancytorchWood_baseColor.png"
    },
    {
      "uri": "textures/FancytorchWood_metallicRoughness.png"
    },
    {
      "uri": "textures/FancytorchWood_normal.png"
    }
  ],
  "materials": [
    {
      "doubleSided": true,
      "name": "Coal",
      "normalTexture": {
        "index": 2
      },
      "occlusionTexture": {
        "index": 1
      },
      "pbrMetallicRoughness": {
        "baseColorTexture": {
          "index": 0
        },
        "metallicRoughnessTexture": {
          "index": 1
        }
      }
    },
    {
      "doubleSided": true,
      "name": "FancyTorchIron",
      "normalTexture": {
        "index": 5
      },
      "occlusionTexture": {
        "index": 4
      },
      "pbrMetallicRoughness": {
        "baseColorTexture": {
          "index": 3
        },
        "metallicRoughnessTexture": {
          "index": 4
        }
      }
    },
    {
      "doubleSided": true,
      "name": "FancyTorchLeather",
      "normalTexture": {
        "index": 8
      },
      "occlusionTexture": {
        "index": 7
      },
      "pbrMetallicRoughness": {
        "baseColorTexture": {
          "index": 6
        },
        "metallicRoughnessTexture": {
          "index": 7
        }
      }
    },
    {
      "doubleSided": true,
      "name": "FancytorchWood",
      "normalTexture": {
        "index": 11
      },
      "occlusionTexture": {
        "index": 10
      },
      "pbrMetallicRoughness": {
        "baseColorTexture": {
          "index": 9
        },
        "metallicRoughnessTexture": {
          "index": 10
        }
      }
    }
  ],
  "meshes": [
    {
      "name": "Object_0",
      "primitives": [
        {
          "attributes": {
            "NORMAL": 1,
            "POSITION": 0,
            "TANGENT": 2,
            "TEXCOORD_0": 3
          },
          "indices": 4,
          "material": 0,
          "mode": 4
        }
      ]
    },
    {
      "name": "Object_1",
      "primitives": [
        {
          "attributes": {
            "NORMAL": 6,
            "POSITION": 5,
            "TANGENT": 7,
            "TEXCOORD_0": 8
          },
          "indices": 9,
          "material": 1,
          "mode": 4
        }
      ]
    },
    {
      "name": "Object_2",
      "primitives": [
        {
          "attributes": {
            "NORMAL": 11,
            "POSITION": 10,
            "TANGENT": 12,
            "TEXCOORD_0": 13
          },
          "indices": 14,
          "material": 2,
          "mode": 4
        }
      ]
    },
    {
      "name": "Object_3",
      "primitives": [
        {
          "attributes": {
            "NORMAL": 16,
            "POSITION": 15,
            "TANGENT": 17,
            "TEXCOORD_0": 18
          },
          "indices": 19,
          "material": 3,
          "mode": 4
        }
      ]
    }
  ],
  "nodes": [
    {
      "children": [
        1
      ],
      "matrix": [
        1.0,
        0.0,
        0.0,
        0.0,
        0.0,
        2.220446049250313e-16,
        -1.0,
        0.0,
        0.0,
        1.0,
        2.220446049250313e-16,
        0.0,
        0.0,
        0.0,
        0.0,
        1.0
      ],
      "name": "Sketchfab_model"
    },
    {
      "children": [
        2,
        3,
        4,
        5
      ],
      "name": "FancyTorch.obj.cleaner.materialmerger.gles"
    },
    {
      "mesh": 0,
      "name": "Object_2"
    },
    {
      "mesh": 1,
      "name": "Object_3"
    },
    {
      "mesh": 2,
      "name": "Object_4"
    },
    {
      "mesh": 3,
      "name": "Object_5"
    }
  ],
  "samplers": [
    {
      "magFilter": 9729,
      "minFilter": 9987,
      "wrapS": 10497,
      "wrapT": 10497
    }
  ],
  "scene": 0,
  "scenes": [
    {
      "name": "Sketchfab_Scene",
      "nodes": [
        0
      ]
    }
  ],
  "textures": [
    {
      "sampler": 0,
      "source": 0
    },
    {
      "sampler": 0,
      "source": 1
    },
    {
      "sampler": 0,
      "source": 2
    },
    {
      "sampler": 0,
      "source": 3
    },
    {
      "sampler": 0,
      "source": 4
    },
    {
      "sampler": 0,
      "source": 5
    },
    {
      "sampler": 0,
      "source": 6
    },
    {
      "sampler": 0,
      "source": 7
    },
    {
      "sampler": 0,
      "source": 8
    },
    {
      "sampler": 0,
      "source": 9
    },
    {
      "sampler": 0,
      "source": 10
    },
    {
      "sampler": 0,
      "source": 11
    }
  ]
}
