{
  "accessors": [
    {
      "bufferView": 2,
      "componentType": 5126,
      "count": 88,
      "max": [
        0.10291100293397903,
        -0.8580600023269653,
        0.09240210056304932
      ],
      "min": [
        -0.10291100293397903,
        -1.0,
        -0.09240210056304932
      ],
      "type": "VEC3"
    },
    {
      "bufferView": 2,
      "byteOffset": 1056,
      "componentType": 5126,
      "count": 88,
      "max": [
        0.8951476812362671,
        1.0,
        0.995978593826294
      ],
      "min": [
        -0.8951476812362671,
        -1.0,
        -0.995978593826294
      ],
      "type": "VEC3"
    },
    {
      "bufferView": 3,
      "componentType": 5126,
      "count": 88,
      "max": [
        0.9997618794441223,
        0.3571946918964386,
        0.9761195182800293,
        1.0
      ],
      "min": [
        -0.9978013038635254,
        -0.3571928143501282,
        -1.0,
        1.0
      ],
      "type": "VEC4"
    },
    {
      "bufferView": 1,
      "componentType": 5126,
      "count": 88,
      "max": [
        0.6079360246658325,
        0.5784590244293213
      ],
      "min": [
        0.01718120090663433,
        0.2975510060787201
      ],
      "type": "VEC2"
    },
    {
      "bufferView": 0,
      "componentType": 5125,
      "count": 348,
      "type": "SCALAR"
    },
    {
      "bufferView": 2,
      "byteOffset": 2112,
      "componentType": 5126,
      "count": 128,
      "max": [
        0.43383899331092834,
        0.990293025970459,
        0.24266499280929565
      ],
      "min": [
        -0.43383899331092834,
        0.489331990480423,
        -0.24266499280929565
      ],
      "type": "VEC3"
    },
    {
      "bufferView": 2,
      "byteOffset": 3648,
      "componentType": 5126,
      "count": 128,
      "max": [
        0.9959118962287903,
        0.9996570944786072,
        0.9997665286064148
      ],
      "min": [
        -0.9959118962287903,
        -0.9996570944786072,
        -0.9997665286064148
      ],
      "type": "VEC3"
    },
    {
      "bufferView": 3,
      "byteOffset": 1408,
      "componentType": 5126,
      "count": 128,
      "max": [
        0.7850393652915955,
        0.9997782707214355,
        0.9997583031654358,
        1.0
      ],
      "min": [
        -0.7849097847938538,
        -0.9997799396514893,
        -0.999758243560791,
        1.0
      ],
      "type": "VEC4"
    },
    {
      "bufferView": 1,
      "byteOffset": 704,
      "componentType": 5126,
      "count": 128,
      "max": [
        0.8794209957122803,
        0.9902909994125366
      ],
      "min": [
        0.007762290071696043,
        0.408500999212265
      ],
      "type": "VEC2"
    },
    {
      "bufferView": 0,
      "byteOffset": 1392,
      "componentType": 5125,
      "count": 468,
      "type": "SCALAR"
    },
    {
      "bufferView": 2,
      "byteOffset": 5184,
      "componentType": 5126,
      "count": 88,
      "max": [
        0.10291100293397903,
        0.19471700489521027,
        0.09240210056304932
      ],
      "min": [
        -0.10291100293397903,
        0.09952910244464874,
        -0.09240210056304932
      ],
      "type": "VEC3"
    },
    {
      "bufferView": 2,
      "byteOffset": 6240,
      "componentType": 5126,
      "count": 88,
      "max": [
        0.8935568928718567,
        1.0,
        0.9940424561500549
      ],
      "min": [
        -0.8935568928718567,
        -1.0,
        -0.9940424561500549
      ],
      "type": "VEC3"
    },
    {
      "bufferView": 3,
      "byteOffset": 3456,
      "componentType": 5126,
      "count": 88,
      "max": [
        0.9999015927314758,
        0.25459542870521545,
        0.9809476733207703,
        1.0
      ],
      "min": [
        -0.9977365136146545,
        -0.25459519028663635,
        -1.0,
        1.0
      ],
      "type": "VEC4"
    },
    {
      "bufferView": 1,
      "byteOffset": 1728,
      "componentType": 5126,
      "count": 88,
      "max": [
        0.6158890128135681,
        0.5784609913825989
      ],
      "min": [
        0.017179299145936966,
        0.3437879979610443
      ],
      "type": "VEC2"
    },
    {
      "bufferView": 0,
      "byteOffset": 3264,
      "componentType": 5125,
      "count": 348,
      "type": "SCALAR"
    },
    {
      "bufferView": 2,
      "byteOffset": 7296,
      "componentType": 5126,
      "count": 64,
      "max": [
        0.27080100774765015,
        1.0,
        0.1115809977054596
      ],
      "min": [
        -0.27080100774765015,
        0.9729830026626587,
        -0.1115809977054596
      ],
      "type": "VEC3"
    },
    {
      "bufferView": 2,
      "byteOffset": 8064,
      "componentType": 5126,
      "count": 64,
      "max": [
        1.0,
        1.0,
        1.0
      ],
      "min": [
        -1.0,
        0.0,
        -1.0
      ],
      "type": "VEC3"
    },
    {
      "bufferView": 3,
      "byteOffset": 4864,
      "componentType": 5126,
      "count": 64,
      "max": [
        0.0027616475708782673,
        1.0,
        1.0,
        1.0
      ],
      "min": [
        -0.0027622170746326447,
        -1.0,
        -0.0003310063621029258,
        1.0
      ],
      "type": "VEC4"
    },
    {
      "bufferView": 1,
      "byteOffset": 2432,
      "componentType": 5126,
      "count": 64,
      "max": [
        0.9454150199890137,
        0.8112350106239319
      ],
      "min": [
        0.7875459790229797,
        0.07373350113630295
      ],
      "type": "VEC2"
    },
    {
      "bufferView": 0,
      "byteOffset": 4656,
      "componentType": 5125,
      "count": 90,
      "type": "SCALAR"
    },
    {
      "bufferView": 2,
      "byteOffset": 8832,
      "componentType": 5126,
      "count": 200,
      "max": [
        0.14748899638652802,
        0.5842620134353638,
        0.09445309638977051
      ],
      "min": [
        -0.14748899638652802,
        -0.9242129921913147,
        -0.09445309638977051
      ],
      "type": "VEC3"
    },
    {
      "bufferView": 2,
      "byteOffset": 11232,
      "componentType": 5126,
      "count": 200,
      "max": [
        1.0,
        0.8518937230110168,
        1.0
      ],
      "min": [
        -1.0,
        -0.5452811121940613,
        -1.0
      ],
      "type": "VEC3"
    },
    {
      "bufferView": 3,
      "byteOffset": 5888,
      "componentType": 5126,
      "count": 200,
      "max": [
        0.8518937230110168,
        -0.4865782856941223,
        0.3671274483203888,
        1.0
      ],
      "min": [
        -0.8518937230110168,
        -1.0,
        -0.36735111474990845,
        -1.0
      ],
      "type": "VEC4"
    },
    {
      "bufferView": 1,
      "byteOffset": 2944,
      "componentType": 5126,
      "count": 200,
      "max": [
        0.8387590050697327,
        0.30452200770378113
      ],
      "min": [
        0.00523921987041831,
        0.003695310093462467
      ],
      "type": "VEC2"
    },
    {
      "bufferView": 0,
      "byteOffset": 5016,
      "componentType": 5125,
      "count": 792,
      "type": "SCALAR"
    }
  ],
  "asset": {
    "extras": {
      "author": "SuperfuntimesV (https://sketchfab.com/videshi)",
      "license": "CC-BY-4.0 (http://creativecommons.org/licenses/by/4.0/)",
      "source": "https://sketchfab.com/3d-models/superfuntimes-rusty-metal-hammer-2d2382ed02db4b4e962981114fcad746",
      "title": "Superfuntimes Rusty Metal Hammer"
    },
    "generator": "Sketchfab-12.64.0",
    "version": "2.0"
  },
  "bufferViews": [
    {
      "buffer": 0,
      "byteLength": 8184,
      "name": "floatBufferViews",
      "target": 34963
    },
    {
      "buffer": 0,
      "byteLength": 4544,
      "byteOffset": 8184,
      "byteStride": 8,
      "name": "floatBufferViews",
      "target": 34962
    },
    {
      "buffer": 0,
      "byteLength": 13632,
      "byteOffset": 12728,
      "byteStride": 12,
      "name": "floatBufferViews",
      "target": 34962
    },
    {
      "buffer": 0,
      "byteLength": 9088,
      "byteOffset": 26360,
      "byteStride": 16,
      "name": "floatBufferViews",
      "target": 34962
    }
  ],
  "buffers": [
    {
      "byteLength": 35448,
      "uri": "scene.bin"
    }
  ],
  "images": [
    {
      "uri": "textures/VRPGH_MAT_baseColor.jpeg"
    },
    {
      "uri": "textures/VRPGH_MAT_metallicRoughness.png"
    },
    {
      "uri": "textures/VRPGH_MAT_normal.png"
    }
  ],
  "materials": [
    {
      "doubleSided": true,
      "name": "VRPGH_MAT",
      "normalTexture": {
        "index": 2
      },
      "pbrMetallicRoughness": {
        "baseColorTexture": {
          "index": 0
        },
        "metallicRoughnessTexture": {
          "index": 1
        }
      }
    }
  ],
  "meshes": [
    {
      "name": "defaultMaterial",
      "primitives": [
        {
          "attributes": {
            "NORMAL": 1,
            "POSITION": 0,
            "TANGENT": 2,
            "TEXCOORD_0": 3
          },
          "indices": 4,
          "material": 0,
          "mode": 4
        }
      ]
    },
    {
      "name": "defaultMaterial",
      "primitives": [
        {
          "attributes": {
            "NORMAL": 6,
            "POSITION": 5,
            "TANGENT": 7,
            "TEXCOORD_0": 8
          },
          "indices": 9,
          "material": 0,
          "mode": 4
        }
      ]
    },
    {
      "name": "defaultMaterial",
      "primitives": [
        {
          "attributes": {
            "NORMAL": 11,
            "POSITION": 10,
            "TANGENT": 12,
            "TEXCOORD_0": 13
          },
          "indices": 14,
          "material": 0,
          "mode": 4
        }
      ]
    },
    {
      "name": "defaultMaterial",
      "primitives": [
        {
          "attributes": {
            "NORMAL": 16,
            "POSITION": 15,
            "TANGENT": 17,
            "TEXCOORD_0": 18
          },
          "indices": 19,
          "material": 0,
          "mode": 4
        }
      ]
    },
    {
      "name": "defaultMaterial",
      "primitives": [
        {
          "attributes": {
            "NORMAL": 21,
            "POSITION": 20,
            "TANGENT": 22,
            "TEXCOORD_0": 23
          },
          "indices": 24,
          "material": 0,
          "mode": 4
        }
      ]
    }
  ],
  "nodes": [
    {
      "children": [
        1
      ],
      "matrix": [
        1.0,
        0.0,
        0.0,
        0.0,
        0.0,
        2.220446049250313e-16,
        -1.0,
        0.0,
        0.0,
        1.0,
        2.220446049250313e-16,
        0.0,
        0.0,
        0.0,
        0.0,
        1.0
      ],
      "name": "Sketchfab_model"
    },
    {
      "children": [
        2,
        4,
        6,
        8,
        10
      ],
      "matrix": [
        1.0,
        0.0,
        0.0,
        0.0,
        0.0,
        -4.371139006309477e-08,
        0.999999999999999,
        0.0,
        0.0,
        -0.999999999999999,
        -4.371139006309477e-08,
        0.0,
        0.0,
        0.0,
        0.0,
        1.0
      ],
      "name": "Collada visual scene group"
    },
    {
      "children": [
        3
      ],
      "name": "HM12_HanBoH1"
    },
    {
      "mesh": 0,
      "name": "defaultMaterial"
    },
    {
      "children": [
        5
      ],
      "name": "HS12_Head2"
    },
    {
      "mesh": 1,
      "name": "defaultMaterial"
    },
    {
      "children": [
        7
      ],
      "name": "HM12_HanBoH"
    },
    {
      "mesh": 2,
      "name": "defaultMaterial"
    },
    {
      "children": [
        9
      ],
      "name": "VRPGH_Mat"
    },
    {
      "mesh": 3,
      "name": "defaultMaterial"
    },
    {
      "children": [
        11
      ],
      "name": "HM12_Shaft"
    },
    {
      "mesh": 4,
      "name": "defaultMaterial"
    }
  ],
  "samplers": [
    {
      "magFilter": 9729,
      "minFilter": 9987,
      "wrapS": 10497,
      "wrapT": 10497
    }
  ],
  "scene": 0,
  "scenes": [
    {
      "name": "Sketchfab_Scene",
      "nodes": [
        0
      ]
    }
  ],
  "textures": [
    {
      "sampler": 0,
      "source": 0
    },
    {
      "sampler": 0,
      "source": 1
    },
    {
      "sampler": 0,
      "source": 2
    }
  ]
}
