{
	"asset":{
		"generator":"Khronos glTF Blender I/O v5.1.20",
		"version":"2.0"
	},
	"scene":0,
	"scenes":[
		{
			"name":"Scene",
			"nodes":[
				0,
				1,
				2,
				3,
				4,
				5,
				6,
				7,
				8,
				9,
				10,
				11
			]
		}
	],
	"nodes":[
		{
			"mesh":0,
			"name":"\u041e\u0441\u043d\u043e\u0432\u0430"
		},
		{
			"mesh":1,
			"name":"\u0420\u0443\u043a\u0430",
			"rotation":[
				0.013654961250722408,
				0,
				0,
				0.9999067783355713
			],
			"translation":[
				0,
				0.24088387191295624,
				0
			]
		},
		{
			"mesh":2,
			"name":"\u041b\u0435\u0432\u0430\u044f \u0447\u0430\u0448\u0430",
			"rotation":[
				-0.02204081043601036,
				-0.0009642188670113683,
				-0.04369455203413963,
				0.9988014101982117
			],
			"translation":[
				-0.018285010010004044,
				-0.26406651735305786,
				0.3283865749835968
			]
		},
		{
			"mesh":3,
			"name":"\u0426\u0435\u043f\u044c.1",
			"rotation":[
				0.5061452984809875,
				-0.2921314537525177,
				0.5192188024520874,
				0.6236088275909424
			],
			"scale":[
				0.006090589798986912,
				0.01244598813354969,
				0.016203906387090683
			],
			"translation":[
				-0.02377905882894993,
				0.12879224121570587,
				0.3431087136268616
			]
		},
		{
			"mesh":4,
			"name":"\u0426\u0435\u043f\u044c.2",
			"rotation":[
				-0.24085590243339539,
				-0.7089261412620544,
				0.6624736189842224,
				0.023257387802004814
			],
			"scale":[
				0.006090589798986912,
				0.01244598813354969,
				0.016203906387090683
			],
			"translation":[
				-0.02905765175819397,
				0.12827208638191223,
				0.3160254955291748
			]
		},
		{
			"mesh":5,
			"name":"\u0426\u0435\u043f\u044c.3",
			"rotation":[
				0.6533721089363098,
				0.49185240268707275,
				-0.26455193758010864,
				0.5110757350921631
			],
			"scale":[
				0.006090589798986912,
				0.012445987202227116,
				0.016203906387090683
			],
			"translation":[
				-0.0006191055290400982,
				0.12827208638191223,
				0.32183369994163513
			]
		},
		{
			"mesh":6,
			"name":"\u041a\u043e\u043b\u044c\u0446\u043e",
			"rotation":[
				0,
				0,
				-0.7071068286895752,
				0.7071068286895752
			],
			"scale":[
				0.017081186175346375,
				0.017081186175346375,
				0.017081186175346375
			],
			"translation":[
				-0.018685320392251015,
				0.17564000189304352,
				0.32786500453948975
			]
		},
		{
			"mesh":7,
			"name":"\u0426\u0435\u043f\u044c.004",
			"rotation":[
				0.6533721089363098,
				0.49185240268707275,
				-0.26455193758010864,
				0.5110757350921631
			],
			"scale":[
				0.006090589798986912,
				0.012445987202227116,
				0.016203906387090683
			],
			"translation":[
				0.028842998668551445,
				0.12827208638191223,
				-0.33078983426094055
			]
		},
		{
			"mesh":8,
			"name":"\u0426\u0435\u043f\u044c.005",
			"rotation":[
				-0.24085590243339539,
				-0.7089261412620544,
				0.6624736189842224,
				0.023257387802004814
			],
			"scale":[
				0.006090589798986912,
				0.01244598813354969,
				0.016203906387090683
			],
			"translation":[
				0.0004044529050588608,
				0.12827208638191223,
				-0.3365980386734009
			]
		},
		{
			"mesh":9,
			"name":"\u0426\u0435\u043f\u044c.006",
			"rotation":[
				0.5061452984809875,
				-0.2921314537525177,
				0.5192188024520874,
				0.6236088275909424
			],
			"scale":[
				0.006090589798986912,
				0.01244598813354969,
				0.016203906387090683
			],
			"translation":[
				0.005683045834302902,
				0.12879224121570587,
				-0.3095148205757141
			]
		},
		{
			"mesh":10,
			"name":"\u041f\u0440\u0430\u0432\u0430\u044f \u0447\u0430\u0448\u0430",
			"rotation":[
				-0.02204081043601036,
				-0.0009642188670113683,
				-0.04369455203413963,
				0.9988014101982117
			],
			"translation":[
				0.011177094653248787,
				-0.26406651735305786,
				-0.3242369592189789
			]
		},
		{
			"mesh":11,
			"name":"\u041a\u043e\u043b\u044c\u0446\u043e.001",
			"rotation":[
				0,
				0,
				-0.7071068286895752,
				0.7071068286895752
			],
			"scale":[
				0.017081186175346375,
				0.017081186175346375,
				0.017081186175346375
			],
			"translation":[
				0.010776784271001816,
				0.17564000189304352,
				-0.32475852966308594
			]
		}
	],
	"materials":[
		{
			"doubleSided":true,
			"name":"tripo_node_c4ab6a98-4e57-4e43-a42f-4ab8daab790e_material",
			"pbrMetallicRoughness":{
				"baseColorTexture":{
					"index":0
				},
				"metallicFactor":0,
				"roughnessFactor":0.8999999761581421
			}
		},
		{
			"doubleSided":true,
			"name":"tripo_node_c4ab6a98-4e57-4e43-a42f-4ab8daab790e_material.002",
			"pbrMetallicRoughness":{
				"baseColorTexture":{
					"index":1
				},
				"metallicFactor":0,
				"roughnessFactor":0.8999999761581421
			}
		}
	],
	"meshes":[
		{
			"name":"Mesh_0",
			"primitives":[
				{
					"attributes":{
						"POSITION":0,
						"NORMAL":1,
						"TEXCOORD_0":2
					},
					"indices":3,
					"material":0
				}
			]
		},
		{
			"name":"Mesh_0.002",
			"primitives":[
				{
					"attributes":{
						"POSITION":4,
						"NORMAL":5,
						"TEXCOORD_0":6
					},
					"indices":7,
					"material":0
				}
			]
		},
		{
			"name":"Mesh_0.001",
			"primitives":[
				{
					"attributes":{
						"POSITION":8,
						"NORMAL":9,
						"TEXCOORD_0":10
					},
					"indices":11,
					"material":0
				}
			]
		},
		{
			"name":"\u0422\u043e\u0440.005",
			"primitives":[
				{
					"attributes":{
						"POSITION":12,
						"NORMAL":13,
						"TEXCOORD_0":14
					},
					"indices":15,
					"material":0
				}
			]
		},
		{
			"name":"\u0422\u043e\u0440.003",
			"primitives":[
				{
					"attributes":{
						"POSITION":16,
						"NORMAL":17,
						"TEXCOORD_0":18
					},
					"indices":15,
					"material":0
				}
			]
		},
		{
			"name":"\u0422\u043e\u0440.006",
			"primitives":[
				{
					"attributes":{
						"POSITION":19,
						"NORMAL":20,
						"TEXCOORD_0":21
					},
					"indices":15,
					"material":0
				}
			]
		},
		{
			"name":"\u0422\u043e\u0440.001",
			"primitives":[
				{
					"attributes":{
						"POSITION":22,
						"NORMAL":23,
						"TEXCOORD_0":24
					},
					"indices":25,
					"material":0
				}
			]
		},
		{
			"name":"\u0422\u043e\u0440.007",
			"primitives":[
				{
					"attributes":{
						"POSITION":26,
						"NORMAL":27,
						"TEXCOORD_0":28
					},
					"indices":15,
					"material":1
				}
			]
		},
		{
			"name":"\u0422\u043e\u0440.008",
			"primitives":[
				{
					"attributes":{
						"POSITION":29,
						"NORMAL":30,
						"TEXCOORD_0":31
					},
					"indices":15,
					"material":1
				}
			]
		},
		{
			"name":"\u0422\u043e\u0440.009",
			"primitives":[
				{
					"attributes":{
						"POSITION":32,
						"NORMAL":33,
						"TEXCOORD_0":34
					},
					"indices":15,
					"material":1
				}
			]
		},
		{
			"name":"Mesh_0.004",
			"primitives":[
				{
					"attributes":{
						"POSITION":35,
						"NORMAL":36,
						"TEXCOORD_0":37
					},
					"indices":11,
					"material":1
				}
			]
		},
		{
			"name":"\u0422\u043e\u0440.010",
			"primitives":[
				{
					"attributes":{
						"POSITION":38,
						"NORMAL":39,
						"TEXCOORD_0":40
					},
					"indices":25,
					"material":1
				}
			]
		}
	],
	"textures":[
		{
			"sampler":0,
			"source":0
		},
		{
			"sampler":0,
			"source":1
		}
	],
	"images":[
		{
			"mimeType":"image/jpeg",
			"name":"baseColor",
			"uri":"baseColor.jpg"
		},
		{
			"mimeType":"image/jpeg",
			"name":"baseColor.jpg",
			"uri":"baseColor.jpg.jpg"
		}
	],
	"accessors":[
		{
			"bufferView":0,
			"componentType":5126,
			"count":1832,
			"max":[
				0.3037109375,
				0.4990234375,
				0.4990234375
			],
			"min":[
				-0.3037109375,
				-0.4990234375,
				-0.4990234375
			],
			"type":"VEC3"
		},
		{
			"bufferView":1,
			"componentType":5126,
			"count":1832,
			"type":"VEC3"
		},
		{
			"bufferView":2,
			"componentType":5126,
			"count":1832,
			"type":"VEC2"
		},
		{
			"bufferView":3,
			"componentType":5123,
			"count":3864,
			"type":"SCALAR"
		},
		{
			"bufferView":4,
			"componentType":5126,
			"count":711,
			"max":[
				0.0361328125,
				0.034583598375320435,
				0.3818359375
			],
			"min":[
				-0.04550084471702576,
				-0.07088515162467957,
				-0.3837890625
			],
			"type":"VEC3"
		},
		{
			"bufferView":5,
			"componentType":5126,
			"count":711,
			"type":"VEC3"
		},
		{
			"bufferView":6,
			"componentType":5126,
			"count":711,
			"type":"VEC2"
		},
		{
			"bufferView":7,
			"componentType":5123,
			"count":1572,
			"type":"SCALAR"
		},
		{
			"bufferView":8,
			"componentType":5126,
			"count":305,
			"max":[
				0.1624550074338913,
				0.04562896117568016,
				0.15940099954605103
			],
			"min":[
				-0.1652633547782898,
				-0.04414856433868408,
				-0.16648733615875244
			],
			"type":"VEC3"
		},
		{
			"bufferView":9,
			"componentType":5126,
			"count":305,
			"type":"VEC3"
		},
		{
			"bufferView":10,
			"componentType":5126,
			"count":305,
			"type":"VEC2"
		},
		{
			"bufferView":11,
			"componentType":5123,
			"count":936,
			"type":"SCALAR"
		},
		{
			"bufferView":12,
			"componentType":5126,
			"count":1386,
			"max":[
				1.088099479675293,
				-0.39482101798057556,
				24.48493766784668
			],
			"min":[
				-0.9075223207473755,
				-1.3704415559768677,
				-2.27781343460083
			],
			"type":"VEC3"
		},
		{
			"bufferView":13,
			"componentType":5126,
			"count":1386,
			"type":"VEC3"
		},
		{
			"bufferView":14,
			"componentType":5126,
			"count":1386,
			"type":"VEC2"
		},
		{
			"bufferView":15,
			"componentType":5123,
			"count":6480,
			"type":"SCALAR"
		},
		{
			"bufferView":16,
			"componentType":5126,
			"count":1386,
			"max":[
				1.088099479675293,
				-0.39482101798057556,
				24.48493766784668
			],
			"min":[
				-0.9075223207473755,
				-1.3704415559768677,
				-2.27781343460083
			],
			"type":"VEC3"
		},
		{
			"bufferView":17,
			"componentType":5126,
			"count":1386,
			"type":"VEC3"
		},
		{
			"bufferView":18,
			"componentType":5126,
			"count":1386,
			"type":"VEC2"
		},
		{
			"bufferView":19,
			"componentType":5126,
			"count":1386,
			"max":[
				1.088099479675293,
				-0.39482101798057556,
				24.48493766784668
			],
			"min":[
				-0.9075223207473755,
				-1.3704415559768677,
				-2.27781343460083
			],
			"type":"VEC3"
		},
		{
			"bufferView":20,
			"componentType":5126,
			"count":1386,
			"type":"VEC3"
		},
		{
			"bufferView":21,
			"componentType":5126,
			"count":1386,
			"type":"VEC2"
		},
		{
			"bufferView":22,
			"componentType":5126,
			"count":63,
			"max":[
				1.149999976158142,
				0.12990382313728333,
				1.149999976158142
			],
			"min":[
				-1.149999976158142,
				-0.12990382313728333,
				-1.149999976158142
			],
			"type":"VEC3"
		},
		{
			"bufferView":23,
			"componentType":5126,
			"count":63,
			"type":"VEC3"
		},
		{
			"bufferView":24,
			"componentType":5126,
			"count":63,
			"type":"VEC2"
		},
		{
			"bufferView":25,
			"componentType":5123,
			"count":288,
			"type":"SCALAR"
		},
		{
			"bufferView":26,
			"componentType":5126,
			"count":1386,
			"max":[
				1.088099479675293,
				-0.39482101798057556,
				24.48493766784668
			],
			"min":[
				-0.9075223207473755,
				-1.3704415559768677,
				-2.27781343460083
			],
			"type":"VEC3"
		},
		{
			"bufferView":27,
			"componentType":5126,
			"count":1386,
			"type":"VEC3"
		},
		{
			"bufferView":28,
			"componentType":5126,
			"count":1386,
			"type":"VEC2"
		},
		{
			"bufferView":29,
			"componentType":5126,
			"count":1386,
			"max":[
				1.088099479675293,
				-0.39482101798057556,
				24.48493766784668
			],
			"min":[
				-0.9075223207473755,
				-1.3704415559768677,
				-2.27781343460083
			],
			"type":"VEC3"
		},
		{
			"bufferView":30,
			"componentType":5126,
			"count":1386,
			"type":"VEC3"
		},
		{
			"bufferView":31,
			"componentType":5126,
			"count":1386,
			"type":"VEC2"
		},
		{
			"bufferView":32,
			"componentType":5126,
			"count":1386,
			"max":[
				1.088099479675293,
				-0.39482101798057556,
				24.48493766784668
			],
			"min":[
				-0.9075223207473755,
				-1.3704415559768677,
				-2.27781343460083
			],
			"type":"VEC3"
		},
		{
			"bufferView":33,
			"componentType":5126,
			"count":1386,
			"type":"VEC3"
		},
		{
			"bufferView":34,
			"componentType":5126,
			"count":1386,
			"type":"VEC2"
		},
		{
			"bufferView":35,
			"componentType":5126,
			"count":305,
			"max":[
				0.1624550074338913,
				0.04562896117568016,
				0.15940099954605103
			],
			"min":[
				-0.1652633547782898,
				-0.04414856433868408,
				-0.16648733615875244
			],
			"type":"VEC3"
		},
		{
			"bufferView":36,
			"componentType":5126,
			"count":305,
			"type":"VEC3"
		},
		{
			"bufferView":37,
			"componentType":5126,
			"count":305,
			"type":"VEC2"
		},
		{
			"bufferView":38,
			"componentType":5126,
			"count":63,
			"max":[
				1.149999976158142,
				0.12990382313728333,
				1.149999976158142
			],
			"min":[
				-1.149999976158142,
				-0.12990382313728333,
				-1.149999976158142
			],
			"type":"VEC3"
		},
		{
			"bufferView":39,
			"componentType":5126,
			"count":63,
			"type":"VEC3"
		},
		{
			"bufferView":40,
			"componentType":5126,
			"count":63,
			"type":"VEC2"
		}
	],
	"bufferViews":[
		{
			"buffer":0,
			"byteLength":21984,
			"byteOffset":0,
			"target":34962
		},
		{
			"buffer":0,
			"byteLength":21984,
			"byteOffset":21984,
			"target":34962
		},
		{
			"buffer":0,
			"byteLength":14656,
			"byteOffset":43968,
			"target":34962
		},
		{
			"buffer":0,
			"byteLength":7728,
			"byteOffset":58624,
			"target":34963
		},
		{
			"buffer":0,
			"byteLength":8532,
			"byteOffset":66352,
			"target":34962
		},
		{
			"buffer":0,
			"byteLength":8532,
			"byteOffset":74884,
			"target":34962
		},
		{
			"buffer":0,
			"byteLength":5688,
			"byteOffset":83416,
			"target":34962
		},
		{
			"buffer":0,
			"byteLength":3144,
			"byteOffset":89104,
			"target":34963
		},
		{
			"buffer":0,
			"byteLength":3660,
			"byteOffset":92248,
			"target":34962
		},
		{
			"buffer":0,
			"byteLength":3660,
			"byteOffset":95908,
			"target":34962
		},
		{
			"buffer":0,
			"byteLength":2440,
			"byteOffset":99568,
			"target":34962
		},
		{
			"buffer":0,
			"byteLength":1872,
			"byteOffset":102008,
			"target":34963
		},
		{
			"buffer":0,
			"byteLength":16632,
			"byteOffset":103880,
			"target":34962
		},
		{
			"buffer":0,
			"byteLength":16632,
			"byteOffset":120512,
			"target":34962
		},
		{
			"buffer":0,
			"byteLength":11088,
			"byteOffset":137144,
			"target":34962
		},
		{
			"buffer":0,
			"byteLength":12960,
			"byteOffset":148232,
			"target":34963
		},
		{
			"buffer":0,
			"byteLength":16632,
			"byteOffset":161192,
			"target":34962
		},
		{
			"buffer":0,
			"byteLength":16632,
			"byteOffset":177824,
			"target":34962
		},
		{
			"buffer":0,
			"byteLength":11088,
			"byteOffset":194456,
			"target":34962
		},
		{
			"buffer":0,
			"byteLength":16632,
			"byteOffset":205544,
			"target":34962
		},
		{
			"buffer":0,
			"byteLength":16632,
			"byteOffset":222176,
			"target":34962
		},
		{
			"buffer":0,
			"byteLength":11088,
			"byteOffset":238808,
			"target":34962
		},
		{
			"buffer":0,
			"byteLength":756,
			"byteOffset":249896,
			"target":34962
		},
		{
			"buffer":0,
			"byteLength":756,
			"byteOffset":250652,
			"target":34962
		},
		{
			"buffer":0,
			"byteLength":504,
			"byteOffset":251408,
			"target":34962
		},
		{
			"buffer":0,
			"byteLength":576,
			"byteOffset":251912,
			"target":34963
		},
		{
			"buffer":0,
			"byteLength":16632,
			"byteOffset":252488,
			"target":34962
		},
		{
			"buffer":0,
			"byteLength":16632,
			"byteOffset":269120,
			"target":34962
		},
		{
			"buffer":0,
			"byteLength":11088,
			"byteOffset":285752,
			"target":34962
		},
		{
			"buffer":0,
			"byteLength":16632,
			"byteOffset":296840,
			"target":34962
		},
		{
			"buffer":0,
			"byteLength":16632,
			"byteOffset":313472,
			"target":34962
		},
		{
			"buffer":0,
			"byteLength":11088,
			"byteOffset":330104,
			"target":34962
		},
		{
			"buffer":0,
			"byteLength":16632,
			"byteOffset":341192,
			"target":34962
		},
		{
			"buffer":0,
			"byteLength":16632,
			"byteOffset":357824,
			"target":34962
		},
		{
			"buffer":0,
			"byteLength":11088,
			"byteOffset":374456,
			"target":34962
		},
		{
			"buffer":0,
			"byteLength":3660,
			"byteOffset":385544,
			"target":34962
		},
		{
			"buffer":0,
			"byteLength":3660,
			"byteOffset":389204,
			"target":34962
		},
		{
			"buffer":0,
			"byteLength":2440,
			"byteOffset":392864,
			"target":34962
		},
		{
			"buffer":0,
			"byteLength":756,
			"byteOffset":395304,
			"target":34962
		},
		{
			"buffer":0,
			"byteLength":756,
			"byteOffset":396060,
			"target":34962
		},
		{
			"buffer":0,
			"byteLength":504,
			"byteOffset":396816,
			"target":34962
		}
	],
	"samplers":[
		{
			"magFilter":9729,
			"minFilter":9987
		}
	],
	"buffers":[
		{
			"byteLength":397320,
			"uri":"%D0%B2%D0%B5%D1%81%D1%8B.bin"
		}
	]
}
